<?xml version="1.0" standalone="no"?>
<!DOCTYPE svg PUBLIC "-//W3C//DTD SVG 20010904//EN"
 "http://www.w3.org/TR/2001/REC-SVG-20010904/DTD/svg10.dtd">
<svg version="1.0" xmlns="http://www.w3.org/2000/svg"
 width="1200.000000pt" height="1200.000000pt" viewBox="0 0 1200.000000 1200.000000"
 preserveAspectRatio="xMidYMid meet">

<g transform="translate(0.000000,1200.000000) scale(0.100000,-0.100000)"
fill="#000000" stroke="none">
<path d="M1440 9089 c0 -1306 2 -1478 16 -1532 41 -161 152 -282 310 -338 83
-30 225 -30 308 0 158 56 269 177 310 338 14 53 16 183 16 1052 l0 991 1013 2
c1139 3 1055 -2 1179 81 325 218 268 700 -101 849 l-56 23 -1497 3 -1498 2 0
-1471z"/>
<path d="M7541 10544 c-153 -41 -277 -157 -332 -310 -16 -44 -21 -82 -21 -154
0 -72 5 -110 21 -154 55 -155 180 -270 336 -311 51 -13 193 -15 1057 -15 l998
0 0 -991 c0 -1081 -2 -1047 57 -1163 34 -67 135 -166 203 -199 192 -94 408
-60 556 88 34 33 73 84 88 113 58 114 56 47 56 1645 l0 1467 -1482 -1 c-1263
0 -1491 -2 -1537 -15z"/>
<path d="M1845 4560 c-195 -32 -345 -172 -390 -362 -13 -54 -15 -271 -15
-1530 l0 -1468 1465 0 c1027 0 1480 3 1517 11 141 29 267 128 333 263 33 67
38 86 43 169 5 111 -7 177 -51 262 -37 70 -124 159 -194 198 -107 58 -88 57
-1165 57 l-988 0 0 986 c0 1095 2 1068 -66 1181 -44 73 -85 117 -150 159 -97
63 -231 92 -339 74z"/>
<path d="M10005 4560 c-195 -32 -345 -172 -390 -362 -12 -53 -15 -215 -15
-1050 l0 -988 -1017 -2 -1018 -3 -56 -23 c-369 -149 -426 -631 -101 -849 126
-85 -20 -78 1660 -81 l1492 -2 0 1465 c0 1628 3 1546 -66 1662 -44 73 -85 117
-150 159 -97 63 -231 92 -339 74z"/>
</g>
</svg>
