<?xml version="1.0" standalone="no"?>
<!DOCTYPE svg PUBLIC "-//W3C//DTD SVG 20010904//EN"
 "http://www.w3.org/TR/2001/REC-SVG-20010904/DTD/svg10.dtd">
<svg version="1.0" xmlns="http://www.w3.org/2000/svg"
 width="512.000000pt" height="512.000000pt" viewBox="0 0 512.000000 512.000000"
 preserveAspectRatio="xMidYMid meet">

<g transform="translate(0.000000,512.000000) scale(0.100000,-0.100000)"
fill="#000000" stroke="none">
<path d="M642 4640 c-115 -41 -205 -115 -261 -213 -52 -91 -61 -153 -61 -429
l0 -248 2041 0 2040 0 -3 283 -3 282 -36 75 c-62 128 -149 206 -277 249 -61
21 -67 21 -1724 21 -1614 -1 -1665 -1 -1716 -20z m476 -164 c100 -51 162 -153
162 -266 0 -87 -25 -147 -89 -211 -71 -70 -133 -94 -230 -87 -161 12 -275 133
-276 292 0 74 12 115 52 177 29 44 101 97 157 115 60 20 163 11 224 -20z m764
5 c89 -42 157 -136 173 -238 9 -55 -17 -152 -55 -207 -16 -24 -51 -58 -77 -75
-156 -103 -361 -44 -441 128 -21 46 -24 63 -20 135 3 50 11 94 22 114 38 74
113 136 196 163 43 15 154 4 202 -20z m783 -5 c217 -107 217 -420 1 -534 -44
-23 -63 -27 -136 -27 -70 0 -93 4 -130 24 -98 51 -159 140 -167 246 -19 234
219 394 432 291z"/>
<path d="M921 4332 c-99 -50 -105 -177 -12 -239 61 -41 154 -21 192 41 24 39
25 108 2 146 -20 34 -81 70 -119 70 -16 0 -44 -8 -63 -18z"/>
<path d="M1693 4334 c-95 -47 -97 -200 -4 -249 63 -32 148 -9 187 51 11 16 18
45 18 73 0 106 -106 171 -201 125z"/>
<path d="M2462 4330 c-50 -30 -74 -76 -69 -131 7 -84 70 -136 154 -126 100 11
155 126 100 208 -43 65 -124 86 -185 49z"/>
<path d="M320 2487 c0 -1213 -3 -1158 62 -1278 57 -108 183 -202 306 -228 68
-14 2382 -16 2382 -1 0 5 -7 35 -15 67 -23 86 -30 246 -16 343 32 217 123 400
272 549 260 260 634 352 974 239 50 -16 96 -32 103 -34 9 -5 12 143 12 720 l0
726 -2040 0 -2040 0 0 -1103z m1822 758 c64 -21 1088 -618 1139 -663 31 -27
60 -68 81 -110 30 -60 33 -76 33 -152 0 -74 -4 -93 -32 -152 -17 -36 -50 -84
-72 -106 -50 -48 -1079 -647 -1161 -675 -168 -58 -373 40 -442 211 l-23 57 0
665 0 665 32 67 c81 172 268 253 445 193z"/>
<path d="M1985 3101 c-75 -19 -130 -68 -154 -140 -15 -46 -16 -1229 0 -1284
31 -113 168 -177 274 -128 22 10 267 149 545 310 331 191 516 304 536 327 39
42 58 108 49 162 -10 63 -50 114 -124 159 -95 59 -945 550 -989 572 -46 23
-98 31 -137 22z"/>
<path d="M3885 2059 c-278 -43 -504 -211 -619 -461 -46 -99 -65 -175 -73 -288
-24 -373 210 -706 577 -822 65 -20 96 -23 225 -23 129 0 161 3 225 23 142 44
298 144 383 246 171 205 235 478 172 727 -39 155 -149 324 -277 428 -162 132
-414 202 -613 170z m164 -316 c64 -61 321 -394 321 -416 0 -30 -26 -66 -56
-77 -42 -16 -76 7 -154 105 -41 52 -78 95 -82 95 -5 0 -8 -146 -8 -325 0 -312
-1 -326 -20 -345 -20 -20 -63 -26 -94 -14 -37 14 -41 42 -46 365 l-5 317 -78
-94 c-43 -52 -89 -99 -102 -104 -47 -18 -105 25 -105 77 0 23 305 413 339 433
29 17 60 11 90 -17z"/>
</g>
</svg>
