<?xml version="1.0" standalone="no"?>
<!DOCTYPE svg PUBLIC "-//W3C//DTD SVG 20010904//EN"
 "http://www.w3.org/TR/2001/REC-SVG-20010904/DTD/svg10.dtd">
<svg version="1.0" xmlns="http://www.w3.org/2000/svg"
 width="512.000000pt" height="512.000000pt" viewBox="0 0 512.000000 512.000000"
 preserveAspectRatio="xMidYMid meet">

<g transform="translate(0.000000,512.000000) scale(0.100000,-0.100000)"
fill="#000000" stroke="none">
<path d="M648 4387 c-126 -43 -226 -132 -281 -249 -34 -73 -47 -143 -47 -253
l0 -95 315 0 315 0 0 310 0 310 -117 0 c-96 0 -130 -5 -185 -23z"/>
<path d="M1110 2765 l0 -1645 961 0 c765 0 960 3 955 13 -23 55 -67 206 -77
261 -17 99 -7 322 20 420 26 98 97 249 155 330 132 185 336 327 556 389 l80
22 0 928 0 927 -1325 0 -1325 0 0 -1645z m989 830 c52 -18 950 -556 997 -597
54 -47 95 -143 96 -219 0 -35 -5 -82 -11 -105 -14 -52 -63 -125 -104 -156 -56
-43 -946 -570 -985 -584 -147 -53 -334 38 -391 190 -21 58 -22 63 -19 655 l3
596 28 57 c69 140 243 214 386 163z"/>
<path d="M1920 3431 c-19 -10 -45 -36 -57 -57 l-23 -39 0 -571 0 -571 23 -33
c49 -72 131 -99 198 -65 104 53 908 542 931 566 59 62 57 158 -4 216 -18 16
-237 152 -487 302 -420 251 -457 271 -500 271 -26 0 -62 -8 -81 -19z"/>
<path d="M3920 4100 l0 -310 322 0 321 0 -6 118 c-9 171 -41 253 -141 360 -98
104 -198 142 -378 142 l-118 0 0 -310z"/>
<path d="M320 3240 l0 -390 315 0 315 0 0 390 0 390 -315 0 -315 0 0 -390z"/>
<path d="M3927 3623 c-4 -3 -7 -179 -7 -390 l0 -383 320 0 320 0 -2 388 -3
387 -311 3 c-171 1 -313 -1 -317 -5z"/>
<path d="M320 2300 l0 -390 315 0 315 0 0 390 0 390 -315 0 -315 0 0 -390z"/>
<path d="M3927 2683 c-4 -3 -7 -30 -7 -60 l0 -53 59 0 c151 0 343 -57 489
-145 l87 -52 3 145 c1 81 0 152 -2 159 -4 10 -71 13 -314 13 -170 0 -312 -3
-315 -7z"/>
<path d="M3850 2403 c-364 -55 -644 -299 -730 -637 -27 -109 -28 -289 0 -404
75 -314 321 -558 637 -633 119 -28 331 -23 438 11 278 88 486 305 570 597 137
471 -168 965 -653 1059 -68 13 -201 17 -262 7z m509 -778 c48 -24 56 -81 16
-120 l-24 -25 -404 0 -404 0 -23 25 c-33 35 -31 81 4 112 l27 23 390 0 c323 0
395 -3 418 -15z"/>
<path d="M320 1647 c0 -176 46 -293 155 -395 104 -98 201 -132 375 -132 l100
0 0 315 0 315 -315 0 -315 0 0 -103z"/>
</g>
</svg>
