<?xml version="1.0" standalone="no"?>
<!DOCTYPE svg PUBLIC "-//W3C//DTD SVG 20010904//EN"
 "http://www.w3.org/TR/2001/REC-SVG-20010904/DTD/svg10.dtd">
<svg version="1.0" xmlns="http://www.w3.org/2000/svg"
 width="512.000000pt" height="512.000000pt" viewBox="0 0 512.000000 512.000000"
 preserveAspectRatio="xMidYMid meet">

<g transform="translate(0.000000,512.000000) scale(0.100000,-0.100000)"
fill="#000000" stroke="none">
<path d="M1915 4480 l-640 -640 643 -643 642 -642 0 513 0 512 69 0 c90 0 274
-32 381 -66 462 -145 834 -501 995 -953 103 -287 116 -629 35 -917 -121 -431
-409 -776 -815 -976 -208 -103 -420 -151 -665 -151 -149 0 -234 10 -375 44
-473 116 -887 484 -1059 943 -56 148 -95 335 -96 453 0 101 23 93 -266 93
l-254 0 0 -32 c0 -179 53 -467 121 -650 326 -892 1198 -1449 2125 -1357 470
46 909 254 1244 590 475 474 689 1133 579 1779 -149 880 -849 1565 -1730 1694
-59 9 -134 16 -167 16 -33 0 -74 3 -91 6 l-31 6 -2 509 -3 509 -640 -640z"/>
<path d="M2290 2362 c0 -5 -14 -125 -30 -267 -17 -142 -29 -264 -26 -270 2 -6
38 -22 80 -34 l77 -23 39 36 c38 34 43 36 113 36 70 0 76 -2 115 -36 57 -48
77 -113 61 -198 -14 -76 -21 -90 -67 -121 -44 -30 -103 -33 -149 -7 -37 20
-83 77 -83 104 0 16 -11 18 -110 18 -60 0 -110 -4 -110 -8 0 -23 35 -123 57
-164 29 -53 99 -107 173 -134 122 -43 313 -22 389 43 140 119 163 374 48 537
-53 75 -103 102 -217 117 -77 10 -91 10 -144 -9 l-59 -20 7 77 c4 42 10 93 13
114 l6 37 219 0 219 0 -3 88 -3 87 -307 3 c-170 1 -308 -2 -308 -6z"/>
</g>
</svg>
