<?xml version="1.0" standalone="no"?>
<!DOCTYPE svg PUBLIC "-//W3C//DTD SVG 20010904//EN"
 "http://www.w3.org/TR/2001/REC-SVG-20010904/DTD/svg10.dtd">
<svg version="1.0" xmlns="http://www.w3.org/2000/svg"
 width="512.000000pt" height="512.000000pt" viewBox="0 0 512.000000 512.000000"
 preserveAspectRatio="xMidYMid meet">

<g transform="translate(0.000000,512.000000) scale(0.100000,-0.100000)"
fill="#000000" stroke="none">
<path d="M868 5109 c-175 -25 -308 -161 -370 -376 l-23 -78 0 -2100 c0 -2004
1 -2103 18 -2165 59 -208 189 -344 365 -381 122 -25 296 9 452 89 66 34 2775
1744 2970 1875 188 126 311 281 355 447 8 30 15 94 15 142 0 201 -110 391
-315 543 -87 64 -2913 1854 -3011 1907 -92 50 -196 84 -290 98 -83 11 -85 11
-166 -1z"/>
</g>
</svg>
