<?xml version="1.0" standalone="no"?>
<!DOCTYPE svg PUBLIC "-//W3C//DTD SVG 20010904//EN"
 "http://www.w3.org/TR/2001/REC-SVG-20010904/DTD/svg10.dtd">
<svg version="1.0" xmlns="http://www.w3.org/2000/svg"
 width="512.000000pt" height="512.000000pt" viewBox="0 0 512.000000 512.000000"
 preserveAspectRatio="xMidYMid meet">

<g transform="translate(0.000000,512.000000) scale(0.100000,-0.100000)"
fill="#000000" stroke="none">
<path d="M2560 4479 l0 -426 -112 -6 c-423 -21 -854 -228 -1149 -552 -368
-405 -519 -956 -409 -1497 89 -436 362 -835 740 -1080 696 -452 1610 -341
2175 265 214 229 364 517 425 816 21 105 44 327 35 342 -4 5 -98 9 -214 9
l-208 0 -7 -92 c-14 -178 -57 -332 -142 -498 -310 -606 -1047 -859 -1673 -574
-175 80 -367 237 -489 399 -73 96 -175 308 -206 425 -47 177 -57 349 -31 520
72 474 392 863 843 1024 86 30 236 62 345 71 l77 7 0 -429 0 -428 532 533 533
532 -533 532 -532 533 0 -426z"/>
<path d="M2336 2608 c-4 -11 -45 -370 -49 -433 -2 -16 10 -22 63 -37 l64 -18
50 25 c59 30 97 31 152 6 51 -23 74 -68 74 -145 0 -68 -18 -115 -55 -144 -33
-26 -92 -29 -135 -7 -30 15 -60 61 -60 90 0 12 -15 15 -90 15 -102 0 -102 0
-75 -81 23 -67 67 -114 143 -151 59 -30 76 -33 152 -33 133 0 215 48 272 159
26 49 36 189 19 251 -17 65 -65 131 -117 161 -58 34 -174 45 -241 21 l-43 -15
6 57 c4 31 10 74 13 96 l7 40 182 3 183 2 -3 73 -3 72 -253 3 c-197 2 -253 0
-256 -10z"/>
</g>
</svg>
