<svg width="40" height="40" viewBox="0 0 40 40" fill="none" xmlns="http://www.w3.org/2000/svg">
<path d="M14.1467 35.48C12.3267 34.6877 10.7433 33.6183 9.39667 32.2716C8.05 30.925 6.98056 29.3416 6.18833 27.5216C5.39611 25.7016 5 23.75 5 21.6666H8.33333C8.33333 24.9166 9.46556 27.6738 11.73 29.9383C13.9944 32.2027 16.7511 33.3344 20 33.3333C23.2489 33.3322 26.0061 32.2005 28.2717 29.9383C30.5372 27.6761 31.6689 24.9188 31.6667 21.6666C31.6644 18.4144 30.5328 15.6577 28.2717 13.3966C26.0106 11.1355 23.2533 10.0033 20 9.99996H19.75L22.3333 12.5833L20 15L13.3333 8.33329L20 1.66663L22.3333 4.08329L19.75 6.66663H20C22.0833 6.66663 24.035 7.06274 25.855 7.85496C27.675 8.64718 29.2583 9.71663 30.605 11.0633C31.9517 12.41 33.0211 13.9933 33.8133 15.8133C34.6056 17.6333 35.0011 19.5844 35 21.6666C34.9989 23.7488 34.6033 25.7005 33.8133 27.5216C33.0233 29.3427 31.9539 30.9261 30.605 32.2716C29.2561 33.6172 27.6728 34.6866 25.855 35.48C24.0372 36.2733 22.0856 36.6688 20 36.6666C17.9144 36.6644 15.9633 36.2688 14.1467 35.48Z" fill="black"/>
</svg>
