<?xml version="1.0" standalone="no"?>
<!DOCTYPE svg PUBLIC "-//W3C//DTD SVG 20010904//EN"
 "http://www.w3.org/TR/2001/REC-SVG-20010904/DTD/svg10.dtd">
<svg version="1.0" xmlns="http://www.w3.org/2000/svg"
 width="1200.000000pt" height="1200.000000pt" viewBox="0 0 1200.000000 1200.000000"
 preserveAspectRatio="xMidYMid meet">

<g transform="translate(0.000000,1200.000000) scale(0.100000,-0.100000)"
fill="#000000" stroke="none">
<path d="M5864 11741 c-153 -44 -271 -155 -325 -307 -16 -44 -21 -82 -21 -154
0 -143 48 -257 146 -348 101 -93 211 -132 376 -132 348 0 794 -58 1152 -149
1338 -341 2461 -1242 3088 -2476 270 -533 428 -1071 497 -1695 12 -114 17
-241 17 -480 0 -350 -11 -496 -60 -790 -164 -987 -626 -1890 -1329 -2595 -181
-181 -311 -295 -510 -445 -1006 -761 -2250 -1090 -3520 -929 -1604 202 -2995
1202 -3696 2654 -562 1165 -632 2521 -193 3733 190 523 467 1005 830 1442 l79
95 5 -675 c4 -525 9 -684 19 -715 26 -79 65 -140 125 -200 72 -72 147 -111
258 -133 71 -14 86 -14 159 1 45 9 106 28 135 42 114 56 210 173 245 303 18
63 19 130 19 1318 0 809 -4 1270 -10 1305 -25 131 -124 266 -239 328 -121 64
-49 61 -1436 61 -1191 0 -1264 -1 -1326 -18 -157 -44 -277 -155 -329 -307 -28
-81 -28 -229 0 -310 52 -152 172 -263 329 -307 60 -17 116 -18 713 -18 l648 0
-111 -132 c-308 -367 -538 -719 -758 -1158 -575 -1153 -742 -2451 -480 -3730
196 -955 655 -1874 1307 -2620 115 -131 363 -380 502 -503 398 -353 784 -613
1270 -856 625 -312 1259 -495 1985 -572 176 -19 268 -23 565 -23 359 0 474 6
767 44 1436 187 2770 931 3694 2060 667 815 1103 1799 1248 2820 44 306 54
462 55 820 1 337 -6 464 -40 730 -184 1461 -924 2796 -2070 3736 -752 617
-1650 1034 -2604 1209 -441 81 -1027 119 -1176 76z"/>
</g>
</svg>
