<svg width="35" height="35" viewBox="0 0 35 35" fill="none" xmlns="http://www.w3.org/2000/svg">
<path fill-rule="evenodd" clip-rule="evenodd" d="M15.4223 5.77266e-08C12.9585 0.000266833 10.5307 0.590738 8.34196 1.72198C6.15327 2.85323 4.26741 4.49233 2.84227 6.50207C1.41713 8.51182 0.494171 10.8337 0.150658 13.2734C-0.192856 15.7131 0.0530715 18.1996 0.867853 20.5247C1.68264 22.8499 3.04256 24.946 4.83379 26.6376C6.62502 28.3292 8.79542 29.5671 11.1633 30.2477C13.5312 30.9283 16.0277 31.0317 18.4438 30.5493C20.8598 30.067 23.1252 29.0128 25.0502 27.4751L31.3483 33.7733C31.6715 34.0854 32.1044 34.2582 32.5538 34.2543C33.0031 34.2504 33.433 34.0701 33.7507 33.7524C34.0685 33.4346 34.2487 33.0048 34.2526 32.5554C34.2565 32.1061 34.0838 31.6732 33.7716 31.35L27.4735 25.0519C29.2866 22.7826 30.4222 20.0475 30.7494 17.1613C31.0765 14.2751 30.5821 11.3552 29.3229 8.73764C28.0637 6.12009 26.091 3.9113 23.6318 2.3655C21.1726 0.81971 18.3269 -0.0002512 15.4223 5.77266e-08ZM5.13964 15.4239C5.13964 14.0736 5.40561 12.7365 5.92236 11.4889C6.43911 10.2414 7.19652 9.10784 8.15135 8.15302C9.10618 7.19819 10.2397 6.44077 11.4873 5.92402C12.7348 5.40728 14.0719 5.14131 15.4223 5.14131C16.7726 5.14131 18.1097 5.40728 19.3572 5.92402C20.6048 6.44077 21.7383 7.19819 22.6932 8.15302C23.648 9.10784 24.4054 10.2414 24.9222 11.4889C25.4389 12.7365 25.7049 14.0736 25.7049 15.4239C25.7049 18.151 24.6215 20.7665 22.6932 22.6948C20.7648 24.6232 18.1494 25.7065 15.4223 25.7065C12.6951 25.7065 10.0797 24.6232 8.15135 22.6948C6.22299 20.7665 5.13964 18.151 5.13964 15.4239Z" fill="black"/>
</svg>
