<svg width="36" height="36" viewBox="0 0 36 36" fill="none" xmlns="http://www.w3.org/2000/svg">
<path d="M10.7609 35.8696C9.77446 35.8696 8.93033 35.5187 8.22848 34.8168C7.52663 34.115 7.17511 33.2702 7.17392 32.2826C7.17272 31.295 7.52424 30.4509 8.22848 29.7502C8.93272 29.0496 9.77685 28.6981 10.7609 28.6957C11.7449 28.6933 12.5896 29.0448 13.2951 29.7502C14.0005 30.4557 14.3514 31.2998 14.3478 32.2826C14.3442 33.2655 13.9933 34.1102 13.2951 34.8168C12.5968 35.5235 11.7521 35.8744 10.7609 35.8696ZM28.6957 35.8696C27.7093 35.8696 26.8651 35.5187 26.1633 34.8168C25.4614 34.115 25.1099 33.2702 25.1087 32.2826C25.1075 31.295 25.459 30.4509 26.1633 29.7502C26.8675 29.0496 27.7116 28.6981 28.6957 28.6957C29.6797 28.6933 30.5244 29.0448 31.2299 29.7502C31.9353 30.4557 32.2862 31.2998 32.2826 32.2826C32.279 33.2655 31.9281 34.1102 31.2299 34.8168C30.5316 35.5235 29.6869 35.8744 28.6957 35.8696ZM7.53261 3.58696H33.9864C34.6739 3.58696 35.197 3.89364 35.5557 4.50701C35.9144 5.12038 35.9294 5.74033 35.6006 6.36685L29.2337 17.8451C28.9049 18.4429 28.4643 18.9063 27.9119 19.2351C27.3595 19.5639 26.7539 19.7283 26.0951 19.7283H12.7337L10.7609 23.3152H32.2826V26.9022H10.7609C9.41577 26.9022 8.39946 26.3121 7.71196 25.132C7.02446 23.9519 6.99457 22.7784 7.62229 21.6114L10.0435 17.2174L3.58696 3.58696H0V0H5.82881L7.53261 3.58696Z" fill="black"/>
</svg>
