<svg width="34" height="24" viewBox="0 0 34 24" fill="none" xmlns="http://www.w3.org/2000/svg">
<path d="M26.3533 0.00166667H6.90833C3.09167 0.00166667 0 3.06 0 6.83333V16.4467C0 20.22 3.09333 23.28 6.90833 23.28H26.3533C30.17 23.28 33.2617 20.22 33.2617 16.4467V6.83333C33.2617 3.06 30.1683 0 26.3533 0V0.00166667ZM21.6817 12.1067L12.5867 16.3983C12.5311 16.4246 12.4699 16.4365 12.4086 16.4329C12.3473 16.4293 12.2879 16.4104 12.2358 16.3779C12.1837 16.3454 12.1406 16.3003 12.1105 16.2468C12.0804 16.1933 12.0641 16.1331 12.0633 16.0717V7.22333C12.0644 7.16145 12.0812 7.10086 12.112 7.04721C12.1429 6.99355 12.1868 6.94857 12.2397 6.91646C12.2926 6.88435 12.3528 6.86616 12.4146 6.86357C12.4764 6.86098 12.5379 6.87409 12.5933 6.90167L21.69 11.46C21.7506 11.4902 21.8014 11.5369 21.8367 11.5947C21.8719 11.6525 21.8902 11.7191 21.8893 11.7868C21.8884 11.8545 21.8685 11.9206 21.8318 11.9774C21.795 12.0343 21.743 12.078 21.6817 12.1067Z" fill="black"/>
</svg>
